<svg width="166" height="166" viewBox="0 0 166 166" fill="none" xmlns="http://www.w3.org/2000/svg">
<g filter="url(#filter0_d)">
<circle cx="82.9193" cy="79.9365" r="28.0808" fill="#161618"/>
<circle cx="82.9193" cy="79.9365" r="27.6491" stroke="#F5BBBB" stroke-width="0.863294"/>
</g>
<path d="M84.8983 88.9774H81.7559C81.3502 88.9774 80.9993 88.6951 80.9125 88.2988L80.5611 86.6724C80.0924 86.467 79.6479 86.2102 79.2359 85.9066L77.6501 86.4117C77.2633 86.535 76.8429 86.3722 76.64 86.0206L75.0654 83.3003C74.8647 82.9486 74.9338 82.5048 75.232 82.2307L76.4622 81.1084C76.4062 80.6001 76.4062 80.0871 76.4622 79.5787L75.232 78.459C74.9334 78.1848 74.8643 77.7405 75.0654 77.3885L76.6366 74.6665C76.8394 74.3149 77.2599 74.1521 77.6466 74.2755L79.2325 74.7805C79.4432 74.6244 79.6625 74.4803 79.8894 74.3488C80.1073 74.226 80.3315 74.1148 80.5611 74.0156L80.9133 72.3909C80.9997 71.9946 81.3503 71.7119 81.7559 71.7115H84.8983C85.3039 71.7119 85.6545 71.9946 85.7409 72.3909L86.0965 74.0165C86.3389 74.1231 86.575 74.2436 86.8036 74.3773C87.017 74.5006 87.2234 74.6358 87.4217 74.7822L89.0084 74.2772C89.3949 74.1543 89.8148 74.317 90.0176 74.6683L91.5888 77.3902C91.7894 77.742 91.7203 78.1858 91.4222 78.4599L90.192 79.5821C90.2479 80.0905 90.2479 80.6035 90.192 81.1119L91.4222 82.2342C91.7203 82.5083 91.7894 82.952 91.5888 83.3038L90.0176 86.0258C89.8148 86.377 89.3949 86.5397 89.0084 86.4168L87.4217 85.9118C87.2209 86.0597 87.0123 86.1966 86.7967 86.3219C86.5703 86.453 86.3369 86.5715 86.0974 86.6767L85.7409 88.2988C85.6541 88.6947 85.3036 88.977 84.8983 88.9774ZM83.3236 76.8912C81.4165 76.8912 79.8705 78.4373 79.8705 80.3444C79.8705 82.2516 81.4165 83.7976 83.3236 83.7976C85.2308 83.7976 86.7768 82.2516 86.7768 80.3444C86.7768 78.4373 85.2308 76.8912 83.3236 76.8912Z" fill="#F5BBBB"/>
<defs>
<filter id="filter0_d" x="0.235176" y="0.0604644" width="165.368" height="165.368" filterUnits="userSpaceOnUse" color-interpolation-filters="sRGB">
<feFlood flood-opacity="0" result="BackgroundImageFix"/>
<feColorMatrix in="SourceAlpha" type="matrix" values="0 0 0 0 0 0 0 0 0 0 0 0 0 0 0 0 0 0 127 0"/>
<feOffset dy="2.80808"/>
<feGaussianBlur stdDeviation="27.3017"/>
<feColorMatrix type="matrix" values="0 0 0 0 0 0 0 0 0 0 0 0 0 0 0 0 0 0 0.25 0"/>
<feBlend mode="normal" in2="BackgroundImageFix" result="effect1_dropShadow"/>
<feBlend mode="normal" in="SourceGraphic" in2="effect1_dropShadow" result="shape"/>
</filter>
</defs>
</svg>
