<svg width="35" height="35" viewBox="0 0 35 35" fill="none" xmlns="http://www.w3.org/2000/svg">
<path d="M17.5 30.6251C16.5594 29.7909 15.4962 28.9232 14.3719 28.0001H14.3573C10.3979 24.7626 5.91062 21.0992 3.92874 16.7096C3.27762 15.3122 2.93256 13.7917 2.91664 12.2501C2.91229 10.1347 3.7607 8.10691 5.27013 6.62492C6.77956 5.14294 8.82259 4.33188 10.9375 4.37505C12.6592 4.37777 14.3439 4.87538 15.7908 5.80859C16.4266 6.22126 17.0019 6.72042 17.5 7.29172C18.0009 6.72267 18.5763 6.22379 19.2106 5.80859C20.6569 4.8752 22.3412 4.37756 24.0625 4.37505C26.1774 4.33188 28.2204 5.14294 29.7299 6.62492C31.2393 8.10691 32.0877 10.1347 32.0833 12.2501C32.0685 13.7942 31.7234 15.3172 31.0712 16.7169C29.0894 21.1065 24.6035 24.7684 20.6442 28.0001L20.6296 28.0117C19.5037 28.929 18.4421 29.7967 17.5015 30.6367L17.5 30.6251ZM10.9375 7.29172C9.57907 7.27472 8.26885 7.79462 7.29166 8.73839C6.35014 9.66321 5.82393 10.9303 5.8332 12.2501C5.84984 13.3737 6.10432 14.4811 6.57999 15.4992C7.51553 17.3932 8.77786 19.1072 10.309 20.5626C11.7542 22.0209 13.4167 23.4326 14.8546 24.6196C15.2527 24.9478 15.6581 25.2788 16.0635 25.6098L16.3187 25.8184C16.7081 26.1363 17.1106 26.4659 17.5 26.7896L17.5189 26.7721L17.5277 26.7648H17.5364L17.5496 26.7546H17.5569H17.5642L17.5904 26.7328L17.6502 26.6846L17.6604 26.6759L17.6765 26.6642H17.6852L17.6983 26.6526L18.6667 25.8578L18.9204 25.6492C19.3302 25.3153 19.7356 24.9842 20.1337 24.6561C21.5717 23.469 23.2356 22.0588 24.6808 20.5932C26.2121 19.1386 27.4745 17.425 28.4098 15.5313C28.8941 14.5043 29.1522 13.3854 29.1667 12.2501C29.1727 10.9344 28.6468 9.67215 27.7083 8.75005C26.733 7.80202 25.4226 7.27784 24.0625 7.29172C22.4028 7.27761 20.8161 7.9733 19.7021 9.20359L17.5 11.7411L15.2979 9.20359C14.1838 7.9733 12.5972 7.27761 10.9375 7.29172Z" fill="white"/>
</svg>
