<svg width="70" height="70" viewBox="0 0 70 70" fill="none" xmlns="http://www.w3.org/2000/svg">
<circle cx="34.9762" cy="34.9634" r="34.4259" fill="#161618" stroke="#F5BBBB" stroke-width="1.07489"/>
<path d="M35.2137 44.4376C35.2137 44.4376 25.6718 39.3982 25.6718 33.279C25.6719 32.1974 26.0693 31.1493 26.7963 30.3129C27.5233 29.4764 28.535 28.9032 29.6595 28.6908C30.784 28.4783 31.9518 28.6397 32.9643 29.1474C33.9769 29.6552 34.7717 30.4781 35.2137 31.4761L35.2137 31.4761C35.6557 30.4781 36.4505 29.6552 37.4631 29.1474C38.4756 28.6397 39.6434 28.4783 40.7679 28.6908C41.8923 28.9032 42.9041 29.4764 43.6311 30.3129C44.3581 31.1493 44.7554 32.1974 44.7556 33.279C44.7556 39.3982 35.2137 44.4376 35.2137 44.4376Z" stroke="#F5BBBB" stroke-width="1.74481" stroke-linecap="round" stroke-linejoin="round"/>
<ellipse cx="30.6515" cy="33.697" rx="4.86975" ry="4.46394" fill="#F5BBBB"/>
<ellipse cx="34.7096" cy="39.3783" rx="4.86975" ry="4.46394" fill="#F5BBBB"/>
<ellipse cx="37.9561" cy="37.755" rx="4.86975" ry="4.46394" fill="#F5BBBB"/>
<ellipse cx="32.2748" cy="36.1318" rx="4.86975" ry="4.46394" fill="#F5BBBB"/>
<ellipse cx="39.5793" cy="33.6969" rx="4.86975" ry="4.46394" fill="#F5BBBB"/>
</svg>
