<svg width="16" height="19" viewBox="0 0 16 19" fill="none" xmlns="http://www.w3.org/2000/svg">
<path d="M12.9014 2.89551H2.97723C2.70318 2.89551 2.48102 3.15482 2.48102 3.47469V15.0584C2.48102 15.3782 2.70318 15.6375 2.97723 15.6375H12.9014C13.1754 15.6375 13.3976 15.3782 13.3976 15.0584V3.47469C13.3976 3.15482 13.1754 2.89551 12.9014 2.89551Z" stroke="#0E0E0E" stroke-width="0.793933" stroke-linecap="round" stroke-linejoin="round"/>
<path d="M10.9166 1.7373V4.05404" stroke="#0E0E0E" stroke-width="0.793933" stroke-linecap="round" stroke-linejoin="round"/>
<path d="M4.9621 1.7373V4.05404" stroke="#0E0E0E" stroke-width="0.793933" stroke-linecap="round" stroke-linejoin="round"/>
<path d="M2.48102 6.37109H13.3976" stroke="#0E0E0E" stroke-width="0.793933" stroke-linecap="round" stroke-linejoin="round"/>
<path d="M5.70642 9.2666H7.44315L6.45073 10.7146C6.61391 10.7146 6.77457 10.7615 6.91849 10.8513C7.06241 10.9411 7.18514 11.0709 7.27581 11.2292C7.36649 11.3876 7.42232 11.5696 7.43835 11.7591C7.45438 11.9487 7.43012 12.1399 7.36772 12.3159C7.30532 12.4919 7.20671 12.6472 7.08061 12.7681C6.95451 12.889 6.80482 12.9717 6.64479 13.0089C6.48476 13.0462 6.31933 13.0368 6.16316 12.9816C6.00698 12.9264 5.86487 12.8271 5.74942 12.6925" stroke="#0E0E0E" stroke-width="0.793933" stroke-linecap="round" stroke-linejoin="round"/>
<path d="M8.9317 10.1354L9.92412 9.2666V13.0313" stroke="#0E0E0E" stroke-width="0.793933" stroke-linecap="round" stroke-linejoin="round"/>
</svg>
