<svg width="20" height="20" viewBox="0 0 20 20" fill="none" xmlns="http://www.w3.org/2000/svg">
<path fill-rule="evenodd" clip-rule="evenodd" d="M12.9688 2.5V5.35012C13.3656 5.58015 13.7336 5.86616 14.0728 6.20815C15.0744 7.21819 15.5918 8.48214 15.625 10C15.5918 11.5179 15.0744 12.7818 14.0728 13.7919C13.7336 14.1338 13.3656 14.4198 12.9688 14.6499V17.5H7.65625V14.6499C7.25938 14.4198 6.89138 14.1338 6.55225 13.7919C5.55062 12.7818 5.0332 11.5179 5 10C5.0332 8.48214 5.55062 7.21819 6.55225 6.20815C6.89138 5.86616 7.25938 5.58015 7.65625 5.35012V2.5H12.9688ZM8.71875 15.1115V16.4286H11.9062V15.1115C11.4107 15.2626 10.8795 15.3445 10.3125 15.3571C9.74552 15.3445 9.21427 15.2626 8.71875 15.1115ZM11.9062 3.57143V4.88853C11.4107 4.73736 10.8795 4.65547 10.3125 4.64286C9.74552 4.65547 9.21427 4.73736 8.71875 4.88853V3.57143H11.9062ZM13.3174 13.0301C12.5205 13.8337 11.5189 14.2522 10.3125 14.2857C9.10612 14.2522 8.10449 13.8337 7.30762 13.0301C6.51074 12.2266 6.0957 11.2165 6.0625 10C6.0957 8.78348 6.51074 7.77344 7.30762 6.96987C8.10449 6.16629 9.10612 5.74777 10.3125 5.71429C11.5189 5.74777 12.5205 6.16629 13.3174 6.96987C14.1143 7.77344 14.5293 8.78348 14.5625 10C14.5293 11.2165 14.1143 12.2266 13.3174 13.0301ZM9.78125 7.32143C9.9362 7.32143 10.0635 7.37165 10.1631 7.4721C10.2627 7.57255 10.3125 7.70089 10.3125 7.85714V10H11.9062C12.2604 10 12.4375 10.1786 12.4375 10.5357C12.4375 10.8929 12.2604 11.0714 11.9062 11.0714L9.78125 11.0714C9.42708 11.0714 9.25 10.8929 9.25 10.5357V7.85714C9.25 7.70089 9.2998 7.57255 9.39941 7.4721C9.49902 7.37165 9.6263 7.32143 9.78125 7.32143Z" fill="black"/>
</svg>
