<svg width="16" height="19" viewBox="0 0 16 19" fill="none" xmlns="http://www.w3.org/2000/svg">
<path d="M3.47345 16.7964H12.4052" stroke="#0E0E0E" stroke-width="0.992417" stroke-linecap="round" stroke-linejoin="round"/>
<path d="M7.9393 9.84587C9.03549 9.84587 9.92413 8.80863 9.92413 7.52914C9.92413 6.24964 9.03549 5.2124 7.9393 5.2124C6.84311 5.2124 5.95447 6.24964 5.95447 7.52914C5.95447 8.80863 6.84311 9.84587 7.9393 9.84587Z" stroke="#0E0E0E" stroke-width="0.992417" stroke-linecap="round" stroke-linejoin="round"/>
<path d="M12.9014 7.52914C12.9014 12.7418 7.93932 16.7961 7.93932 16.7961C7.93932 16.7961 2.97723 12.7418 2.97723 7.52914C2.97723 5.99305 3.50002 4.51987 4.43059 3.43369C5.36117 2.34751 6.62329 1.7373 7.93932 1.7373C9.25534 1.7373 10.5175 2.34751 11.448 3.43369C12.3786 4.51987 12.9014 5.99305 12.9014 7.52914V7.52914Z" stroke="#0E0E0E" stroke-width="0.992417" stroke-linecap="round" stroke-linejoin="round"/>
</svg>
