<svg width="18" height="18" viewBox="0 0 18 18" fill="none" xmlns="http://www.w3.org/2000/svg">
<path fill-rule="evenodd" clip-rule="evenodd" d="M9.5625 9C10.3633 8.98047 11.0273 8.70703 11.5547 8.17969C12.082 7.65234 12.3555 6.98828 12.375 6.1875C12.3555 5.38672 12.082 4.72266 11.5547 4.19531C11.0273 3.66797 10.3633 3.39453 9.5625 3.375C8.76172 3.39453 8.09766 3.66797 7.57031 4.19531C7.04297 4.72266 6.76953 5.38672 6.75 6.1875C6.76953 6.98828 7.04297 7.65234 7.57031 8.17969C8.09766 8.70703 8.76172 8.98047 9.5625 9ZM9.5625 10.125C8.44482 10.0942 7.51685 9.70972 6.77856 8.97144C6.04028 8.23315 5.65576 7.30518 5.625 6.1875C5.65576 5.06982 6.04028 4.14185 6.77856 3.40356C7.51685 2.66528 8.44482 2.28076 9.5625 2.25C10.6802 2.28076 11.6082 2.66528 12.3464 3.40356C13.0847 4.14185 13.4692 5.06982 13.5 6.1875C13.4692 7.30518 13.0847 8.23315 12.3464 8.97144C11.6082 9.70972 10.6802 10.0942 9.5625 10.125ZM14.2031 15.25V13.75C14.1929 13.3229 14.0493 12.9688 13.7725 12.6875C13.4956 12.4063 13.147 12.2604 12.7266 12.25H5.83594C5.41553 12.2604 5.06689 12.4063 4.79004 12.6875C4.51318 12.9688 4.36963 13.3229 4.35938 13.75V15.25C4.35938 15.3958 4.31323 15.5156 4.22095 15.6094C4.12866 15.7031 4.01074 15.75 3.86719 15.75C3.72363 15.75 3.60571 15.7031 3.51343 15.6094C3.42114 15.5156 3.375 15.3958 3.375 15.25V13.75C3.39551 13.0417 3.63647 12.4531 4.0979 11.9844C4.55933 11.5156 5.13867 11.2708 5.83594 11.25H12.7266C13.4238 11.2708 14.0032 11.5156 14.4646 11.9844C14.926 12.4531 15.167 13.0417 15.1875 13.75V15.25C15.1875 15.3958 15.1414 15.5156 15.0491 15.6094C14.9568 15.7031 14.8389 15.75 14.6953 15.75C14.5518 15.75 14.4338 15.7031 14.3416 15.6094C14.2493 15.5156 14.2031 15.3958 14.2031 15.25Z" fill="black"/>
</svg>
