<svg width="14" height="14" viewBox="0 0 14 14" fill="none" xmlns="http://www.w3.org/2000/svg">
<path d="M10.6262 2.16626H2.45222C2.2265 2.16626 2.04352 2.36024 2.04352 2.59953V11.2648C2.04352 11.5041 2.2265 11.6981 2.45222 11.6981H10.6262C10.852 11.6981 11.0349 11.5041 11.0349 11.2648V2.59953C11.0349 2.36024 10.852 2.16626 10.6262 2.16626Z" stroke="#F5BBBB" stroke-width="0.653922" stroke-linecap="round" stroke-linejoin="round"/>
<path d="M8.99139 1.29968V3.03274" stroke="#F5BBBB" stroke-width="0.653922" stroke-linecap="round" stroke-linejoin="round"/>
<path d="M4.08698 1.29968V3.03274" stroke="#F5BBBB" stroke-width="0.653922" stroke-linecap="round" stroke-linejoin="round"/>
<path d="M2.04352 4.76575H11.0349" stroke="#F5BBBB" stroke-width="0.653922" stroke-linecap="round" stroke-linejoin="round"/>
<path d="M4.70007 6.93213H6.13053L5.31313 8.01529C5.44753 8.01529 5.57985 8.05043 5.69839 8.11758C5.81693 8.18474 5.91801 8.28184 5.9927 8.4003C6.06739 8.51875 6.11337 8.6549 6.12657 8.79669C6.13978 8.93848 6.1198 9.08154 6.0684 9.21319C6.01701 9.34484 5.93578 9.46102 5.83192 9.55145C5.72806 9.64188 5.60477 9.70377 5.47296 9.73163C5.34115 9.75949 5.2049 9.75246 5.07626 9.71118C4.94763 9.66989 4.83058 9.59561 4.73549 9.49493" stroke="#F5BBBB" stroke-width="0.653922" stroke-linecap="round" stroke-linejoin="round"/>
<path d="M7.35663 7.58203L8.17403 6.93213V9.74835" stroke="#F5BBBB" stroke-width="0.653922" stroke-linecap="round" stroke-linejoin="round"/>
</svg>
