<svg width="16" height="19" viewBox="0 0 16 19" fill="none" xmlns="http://www.w3.org/2000/svg">
<path d="M12.9885 2.98016H3.06595C2.79195 2.98016 2.56982 3.23943 2.56982 3.55925V15.141C2.56982 15.4608 2.79195 15.7201 3.06595 15.7201H12.9885C13.2625 15.7201 13.4846 15.4608 13.4846 15.141V3.55925C13.4846 3.23943 13.2625 2.98016 12.9885 2.98016Z" stroke="#F5BBBB" stroke-width="0.793801" stroke-linecap="round" stroke-linejoin="round"/>
<path d="M11.004 1.82202V4.13837" stroke="#F5BBBB" stroke-width="0.793801" stroke-linecap="round" stroke-linejoin="round"/>
<path d="M5.05048 1.82202V4.13837" stroke="#F5BBBB" stroke-width="0.793801" stroke-linecap="round" stroke-linejoin="round"/>
<path d="M2.56982 6.45465H13.4846" stroke="#F5BBBB" stroke-width="0.793801" stroke-linecap="round" stroke-linejoin="round"/>
<path d="M5.79468 9.3501H7.53112L6.53887 10.7978C6.70202 10.7978 6.86265 10.8448 7.00654 10.9345C7.15044 11.0243 7.27315 11.1541 7.36381 11.3124C7.45447 11.4707 7.51029 11.6527 7.52632 11.8422C7.54235 12.0317 7.51809 12.2229 7.4557 12.3989C7.39331 12.5748 7.29471 12.7301 7.16864 12.851C7.04256 12.9719 6.89289 13.0546 6.73289 13.0918C6.57289 13.129 6.40749 13.1197 6.25134 13.0645C6.09519 13.0093 5.9531 12.91 5.83767 12.7754" stroke="#F5BBBB" stroke-width="0.793801" stroke-linecap="round" stroke-linejoin="round"/>
<path d="M9.01947 10.2187L10.0117 9.3501V13.1142" stroke="#F5BBBB" stroke-width="0.793801" stroke-linecap="round" stroke-linejoin="round"/>
<path d="M0.0892334 0.0848999V-0.12831H-0.123977V0.0848999H0.0892334ZM15.9652 0.0848999H16.1785V-0.12831H15.9652V0.0848999ZM15.9652 18.6157V18.8289H16.1785V18.6157H15.9652ZM0.0892334 18.6157H-0.123977V18.8289H0.0892334V18.6157ZM0.0892334 0.29811H15.9652V-0.12831H0.0892334V0.29811ZM15.752 0.0848999V18.6157H16.1785V0.0848999H15.752ZM15.9652 18.4025H0.0892334V18.8289H15.9652V18.4025ZM0.302443 18.6157V0.0848999H-0.123977V18.6157H0.302443Z" fill="black"/>
</svg>
