<svg width="30" height="30" viewBox="0 0 30 30" fill="none" xmlns="http://www.w3.org/2000/svg">
<path d="M3.28802 14.574C3.28944 20.5476 7.63323 25.6338 13.533 26.57V18.0833H10.4523V14.574H13.5366V11.9026C13.3987 10.6367 13.8311 9.37517 14.7164 8.46001C15.6018 7.54485 16.8484 7.07096 18.1181 7.16688C19.0295 7.1816 19.9385 7.26276 20.8381 7.40974V10.3957H19.3032C18.7748 10.3265 18.2436 10.501 17.8592 10.87C17.4748 11.2391 17.2787 11.7628 17.3264 12.2936V14.574H20.6912L20.1532 18.0845H17.3264V26.57C23.7068 25.5616 28.181 19.7345 27.5076 13.31C26.8341 6.88561 21.2489 2.11293 14.798 2.44959C8.34718 2.78625 3.28905 8.11439 3.28802 14.574Z" fill="#F5BBBB"/>
</svg>
