<svg width="18" height="18" viewBox="0 0 18 18" fill="none" xmlns="http://www.w3.org/2000/svg">
<path d="M10.8984 17.9774H7.75601C7.35036 17.9774 6.99938 17.6951 6.91257 17.2988L6.56121 15.6724C6.09249 15.467 5.64804 15.2102 5.23606 14.9066L3.65019 15.4117C3.26343 15.535 2.84299 15.3722 2.64013 15.0206L1.06548 12.3003C0.864844 11.9486 0.933968 11.5048 1.2321 11.2307L2.46229 10.1084C2.40635 9.60006 2.40635 9.08707 2.46229 8.57868L1.2321 7.45899C0.933529 7.18478 0.864377 6.74049 1.06548 6.38851L2.63668 3.66654C2.83954 3.31492 3.25998 3.15214 3.64673 3.27547L5.2326 3.7805C5.4433 3.62437 5.66264 3.48026 5.88957 3.34885C6.10741 3.226 6.33161 3.11476 6.56121 3.01562L6.91344 1.3909C6.99983 0.99462 7.35042 0.711914 7.75601 0.711487H10.8984C11.304 0.711914 11.6546 0.99462 11.741 1.3909L12.0967 3.01648C12.3391 3.12311 12.5751 3.2436 12.8037 3.37734C13.0172 3.5006 13.2235 3.63577 13.4218 3.78222L15.0085 3.2772C15.395 3.15432 15.815 3.31704 16.0177 3.66827L17.5889 6.39023C17.7896 6.74201 17.7204 7.18577 17.4223 7.45985L16.1921 8.58214C16.2481 9.09052 16.2481 9.60351 16.1921 10.1119L17.4223 11.2342C17.7204 11.5083 17.7896 11.952 17.5889 12.3038L16.0177 15.0258C15.815 15.377 15.395 15.5397 15.0085 15.4168L13.4218 14.9118C13.221 15.0597 13.0124 15.1966 12.7968 15.3219C12.5704 15.453 12.337 15.5715 12.0975 15.6767L11.741 17.2988C11.6542 17.6947 11.3037 17.977 10.8984 17.9774ZM9.32375 5.89125C7.41662 5.89125 5.87058 7.43729 5.87058 9.34442C5.87058 11.2516 7.41662 12.7976 9.32375 12.7976C11.2309 12.7976 12.7769 11.2516 12.7769 9.34442C12.7769 7.43729 11.2309 5.89125 9.32375 5.89125Z" fill="#F5BBBB"/>
</svg>
