<svg width="74" height="41" viewBox="0 0 74 41" fill="none" xmlns="http://www.w3.org/2000/svg">
<path d="M6.11402 22.8809L5.96199 22.3488C5.96199 22.2475 6.01267 22.1651 6.11402 22.1018C6.21537 22.0258 6.34206 21.8801 6.49409 21.6647C6.65878 21.4493 6.7728 21.31 6.83615 21.2466C6.91216 21.1833 7.01351 21.0946 7.1402 20.9806C7.27956 20.8539 7.39358 20.7525 7.48226 20.6765C7.73564 20.4611 7.91301 20.3408 8.01436 20.3155C8.11571 20.2775 8.29307 20.2204 8.54645 20.1444C9.33193 19.891 9.99704 19.7137 10.5418 19.6123C13.7724 14.2154 16.3632 9.99662 18.3142 6.95608C20.2779 3.90287 21.3927 2.21791 21.6588 1.90119C21.9375 1.57179 22.4253 1.28041 23.122 1.02703C23.8188 0.773652 24.3256 0.653297 24.6423 0.665966C24.9717 0.665966 25.1364 0.805324 25.1364 1.08404C25.1364 1.19806 25.0921 1.35009 25.0034 1.54012C24.9274 1.73015 24.2369 2.85135 22.932 4.90372C18.1052 12.4671 15.0139 17.3699 13.6584 19.6123L14.1334 19.7834C17.0726 19.2386 18.5992 18.9662 18.7133 18.9662C18.8399 18.9662 19.144 19.0549 19.6254 19.2323C20.1195 19.397 20.4426 19.492 20.5946 19.5173C20.886 19.568 21.0317 19.8087 21.0317 20.2394C21.0317 20.6575 20.8986 20.8919 20.6326 20.9426C20.4172 20.9806 19.8978 21.1073 19.0743 21.3226C18.2635 21.5253 17.6111 21.6837 17.117 21.7977C17.7884 22.5959 18.1242 23.4447 18.1242 24.3442C18.1242 25.2437 17.7251 26.4345 16.9269 27.9168C16.1288 29.3864 15.109 30.8433 13.8674 32.2876C12.6258 33.7318 11.3209 35.0937 9.9527 36.3733C8.59713 37.6529 7.29223 38.6854 6.03801 39.4709C4.78378 40.269 3.85895 40.6681 3.26351 40.6681C2.65541 40.6681 2.11698 40.5034 1.64823 40.174C1.16681 39.8573 0.926099 39.3822 0.926099 38.7487C0.926099 38.1153 1.05912 37.3742 1.32517 36.5253C1.57855 35.6892 1.85726 34.9164 2.16132 34.2069C2.46537 33.5101 2.9848 32.503 3.71959 31.1854C4.50507 29.7665 5.92399 27.3404 7.97635 23.9071C7.62162 23.9704 7.34924 24.0021 7.15921 24.0021C6.96917 24.0021 6.79181 23.9578 6.62711 23.8691C6.46242 23.7804 6.3484 23.6664 6.28505 23.527C6.17103 23.2736 6.11402 23.0583 6.11402 22.8809ZM11.454 31.0714C12.4041 29.9692 13.2023 28.8163 13.8484 27.6128C14.4945 26.3965 14.8176 25.4084 14.8176 24.6482C14.8176 23.8754 14.4438 23.1976 13.6964 22.6149L11.587 23.0899C11.3716 23.4447 11.0359 24.0084 10.5798 24.7813C10.1364 25.5414 9.769 26.1622 9.47762 26.6436C9.1989 27.125 8.83784 27.7458 8.39443 28.5059C7.95101 29.266 7.57728 29.9058 7.27323 30.4253C6.98184 30.9447 6.65245 31.5274 6.28505 32.1736C5.93032 32.8323 5.63894 33.3898 5.4109 33.8459C5.17019 34.3146 4.94215 34.777 4.72677 35.2331C4.3087 36.1199 4.09966 36.6964 4.09966 36.9624C4.09966 37.2285 4.16934 37.3615 4.3087 37.3615C4.56208 37.3615 5.08784 37.0701 5.88598 36.4873C6.67145 35.9172 7.55828 35.1444 8.54645 34.1689C9.5473 33.2061 10.5165 32.1736 11.454 31.0714ZM34.106 14.5194C34.4861 14.5194 34.8725 14.6905 35.2652 15.0325C35.6706 15.3746 35.8733 15.9003 35.8733 16.6098C35.8733 17.3066 35.6263 18.2188 35.1322 19.3463C34.6381 20.4611 33.9603 21.6014 33.0988 22.7669C32.2373 23.9198 31.2872 25.0093 30.2483 26.0355C29.2221 27.049 28.1073 27.8851 26.9037 28.5439C25.7128 29.19 24.6296 29.5131 23.6541 29.5131C22.6786 29.5131 21.8932 29.209 21.2977 28.6009C20.7149 27.9802 20.4236 27.125 20.4236 26.0355C20.4236 24.9333 20.6896 23.7171 21.2217 22.3868C21.7665 21.0566 22.4633 19.8847 23.3121 18.8712C24.1609 17.845 25.0794 16.9265 26.0676 16.1157C28.1326 14.4561 29.9443 13.6263 31.5025 13.6263C32.1993 13.6263 32.7251 13.7973 33.0798 14.1394C33.2065 14.2534 33.2698 14.3547 33.2698 14.4434V14.5574C33.4472 14.5321 33.7259 14.5194 34.106 14.5194ZM32.1867 17.0469H32.0536C31.6102 17.0469 31.3885 16.7238 31.3885 16.0777C30.4637 16.3818 29.4945 16.9139 28.481 17.674C27.4675 18.4341 26.5617 19.3336 25.7635 20.3725C24.1419 22.4502 23.3184 24.2048 23.2931 25.6364C23.2931 26.3459 23.5528 26.7006 24.0722 26.7006C24.5916 26.7006 25.3644 26.3585 26.3906 25.6744C27.4168 24.9903 28.4303 24.0148 29.4312 22.7479C30.4447 21.481 31.1985 20.3851 31.6926 19.4603C32.1993 18.5228 32.4527 17.8894 32.4527 17.56C32.4527 17.2179 32.364 17.0469 32.1867 17.0469ZM35.4552 29.114L34.5241 29.076H34.182C34.0553 29.038 33.9223 28.962 33.7829 28.848C33.6309 28.734 33.5169 28.6516 33.4409 28.6009C33.3649 28.5503 33.3269 28.4616 33.3269 28.3349C33.3269 28.1955 33.3775 27.9611 33.4789 27.6318C35.9493 22.1968 38.3374 17.8514 40.6432 14.5954C40.8965 14.2407 41.3019 13.9747 41.8594 13.7973C42.4295 13.6073 42.9806 13.5122 43.5127 13.5122C43.8294 13.5122 43.9877 13.7593 43.9877 14.2534C43.9877 14.3927 43.9371 14.5828 43.8357 14.8235C43.7344 15.0515 43.481 15.4316 43.0756 15.9637C42.6702 16.4958 42.1888 17.1039 41.6313 17.788C41.0739 18.4721 40.7572 18.8649 40.6812 18.9662C42.4168 17.1672 43.9814 15.8307 45.375 14.9565C46.7812 14.0697 47.7948 13.6263 48.4155 13.6263C49.049 13.6263 49.5304 13.81 49.8598 14.1774C50.2019 14.5321 50.3729 14.9185 50.3729 15.3366C50.3729 15.742 50.3412 16.084 50.2779 16.3628C50.2272 16.6288 50.1258 16.9139 49.9738 17.2179C49.8218 17.5093 49.6888 17.7627 49.5747 17.978C49.4734 18.1807 49.296 18.4531 49.0426 18.7952C48.7893 19.1246 48.6119 19.3526 48.5106 19.4793C48.4219 19.606 48.2255 19.8467 47.9214 20.2014C47.6301 20.5562 47.4717 20.7525 47.4464 20.7905C47.8011 20.4358 48.2952 19.9101 48.9286 19.2133C49.5621 18.5165 50.0942 17.9337 50.5249 17.465C50.9683 16.9962 51.5194 16.4704 52.1782 15.8877C52.837 15.2922 53.4514 14.8108 54.0215 14.4434C55.3898 13.5819 56.777 13.1512 58.1833 13.1512C58.6647 13.1512 59.0701 13.3032 59.3995 13.6073C59.7289 13.9113 59.8936 14.2787 59.8936 14.7095C59.8936 15.1275 59.3805 16.141 58.3543 17.75C57.3281 19.3463 56.3019 20.9552 55.2758 22.5769C54.2622 24.1858 53.7555 25.1993 53.7555 25.6174C53.7555 26.2002 53.8632 26.5486 54.0785 26.6626C54.2939 26.7639 54.5536 26.8019 54.8577 26.7766C55.1617 26.7513 55.5861 26.5549 56.1309 26.1875C56.6883 25.8201 57.1824 25.44 57.6132 25.0473C58.31 24.4139 58.9561 23.7994 59.5515 23.204C59.6782 23.0899 59.8176 23.0329 59.9696 23.0329C60.2103 23.0329 60.356 23.2166 60.4067 23.584C60.4573 23.9514 60.4827 24.3315 60.4827 24.7242C60.4827 25.117 60.4447 25.3894 60.3687 25.5414C60.0013 26.2508 59.1904 27.1187 57.9362 28.1448C56.682 29.171 55.4785 29.6841 54.3256 29.6841C54.1862 29.6841 54.0849 29.6778 54.0215 29.6651C52.7166 29.5384 51.8108 29.1837 51.304 28.6009C50.81 28.0055 50.5629 27.3024 50.5629 26.4916C50.5629 25.6807 50.8353 24.6989 51.3801 23.546C51.9375 22.3932 52.5456 21.348 53.2044 20.4105C53.8632 19.473 54.4649 18.6305 55.0097 17.883C55.5671 17.1229 55.8459 16.7111 55.8459 16.6478C55.8459 16.5845 55.7952 16.5528 55.6938 16.5528C55.3011 16.5528 54.4269 17.1862 53.0714 18.4531C50.753 20.6195 48.7513 22.7099 47.0663 24.7242C46.6229 25.2563 45.5714 26.6056 43.9117 28.772C43.7217 29.0253 43.4176 29.152 42.9996 29.152C42.5942 29.152 42.1698 29.076 41.7263 28.924C41.2829 28.7593 41.0612 28.5503 41.0612 28.2969C41.0612 28.1702 42.0684 26.3965 44.0828 22.9759C46.0971 19.5427 47.1043 17.674 47.1043 17.3699C47.1043 17.0532 46.9143 16.8948 46.5342 16.8948C46.1668 16.8948 45.4003 17.4523 44.2348 18.5671C41.0296 21.633 38.5464 24.6799 36.7855 27.7078C36.6714 27.8851 36.4497 28.1639 36.1204 28.5439C35.791 28.924 35.5693 29.114 35.4552 29.114ZM72.0367 14.5194C72.4168 14.5194 72.8032 14.6905 73.1959 15.0325C73.6013 15.3746 73.804 15.9003 73.804 16.6098C73.804 17.3066 73.557 18.2188 73.0629 19.3463C72.5688 20.4611 71.891 21.6014 71.0296 22.7669C70.1681 23.9198 69.2179 25.0093 68.179 26.0355C67.1529 27.049 66.038 27.8851 64.8345 28.5439C63.6436 29.19 62.5604 29.5131 61.5849 29.5131C60.6094 29.5131 59.8239 29.209 59.2285 28.6009C58.6457 27.9802 58.3543 27.125 58.3543 26.0355C58.3543 24.9333 58.6203 23.7171 59.1524 22.3868C59.6972 21.0566 60.394 19.8847 61.2428 18.8712C62.0916 17.845 63.0101 16.9265 63.9983 16.1157C66.0633 14.4561 67.875 13.6263 69.4333 13.6263C70.1301 13.6263 70.6558 13.7973 71.0106 14.1394C71.1372 14.2534 71.2006 14.3547 71.2006 14.4434V14.5574C71.3779 14.5321 71.6567 14.5194 72.0367 14.5194ZM70.1174 17.0469H69.9844C69.541 17.0469 69.3192 16.7238 69.3192 16.0777C68.3944 16.3818 67.4252 16.9139 66.4117 17.674C65.3982 18.4341 64.4924 19.3336 63.6943 20.3725C62.0726 22.4502 61.2491 24.2048 61.2238 25.6364C61.2238 26.3459 61.4835 26.7006 62.0029 26.7006C62.5224 26.7006 63.2952 26.3585 64.3214 25.6744C65.3475 24.9903 66.3611 24.0148 67.3619 22.7479C68.3754 21.481 69.1292 20.3851 69.6233 19.4603C70.1301 18.5228 70.3834 17.8894 70.3834 17.56C70.3834 17.2179 70.2948 17.0469 70.1174 17.0469Z" fill="#F5BBBB"/>
</svg>
