<svg width="32" height="15" viewBox="0 0 32 15" fill="none" xmlns="http://www.w3.org/2000/svg">
<path fill-rule="evenodd" clip-rule="evenodd" d="M31.997 1.5C31.997 2.32843 31.3255 3 30.497 3H1.5C0.671573 3 0 2.32843 0 1.5C0 0.671573 0.671575 0 1.5 0L30.497 0C31.3255 0 31.997 0.671573 31.997 1.5Z" fill="#F5BBBB"/>
<path fill-rule="evenodd" clip-rule="evenodd" d="M22 7.5C22 8.32843 21.3284 9 20.5 9H1.5C0.671573 9 0 8.32843 0 7.5C0 6.67157 0.671573 6 1.5 6H20.5C21.3284 6 22 6.67157 22 7.5Z" fill="#F5BBBB"/>
<path fill-rule="evenodd" clip-rule="evenodd" d="M31.9995 13.4091C31.9995 14.2375 31.328 14.9091 30.4995 14.9091H1.5025C0.674075 14.9091 0.00250244 14.2375 0.00250244 13.4091C0.00250244 12.5806 0.674077 11.9091 1.5025 11.9091H30.4995C31.328 11.9091 31.9995 12.5806 31.9995 13.4091Z" fill="#F5BBBB"/>
</svg>
