<svg width="30" height="30" viewBox="0 0 30 30" fill="none" xmlns="http://www.w3.org/2000/svg">
<path d="M14.5738 25.5495C11.5866 25.5495 11.2345 25.5338 10.0688 25.4828C9.15973 25.4529 8.26244 25.2681 7.41556 24.9363C5.9503 24.3661 4.79166 23.207 4.22199 21.7415C3.903 20.8916 3.73095 19.9936 3.7132 19.0859C3.6452 17.9226 3.6452 17.5413 3.6452 14.5773C3.6452 11.5816 3.66099 11.2319 3.7132 10.0723C3.73134 9.16581 3.90339 8.26905 4.22199 7.42025C4.79104 5.95282 5.95156 4.79275 7.4192 4.22425C8.26756 3.90393 9.16455 3.73143 10.0712 3.71425C11.2308 3.64868 11.6121 3.64868 14.5738 3.64868C17.5852 3.64868 17.9313 3.66447 19.0788 3.71425C19.9878 3.73158 20.8871 3.90406 21.7381 4.22425C23.2053 4.79339 24.3656 5.95324 24.9353 7.42025C25.2596 8.28142 25.4326 9.1922 25.4465 10.1123C25.5145 11.2756 25.5145 11.6557 25.5145 14.6185C25.5145 17.5814 25.4975 17.97 25.4465 19.1199C25.4284 20.0284 25.256 20.9273 24.9365 21.778C24.3654 23.2445 23.205 24.404 21.7381 24.974C20.8884 25.2923 19.9908 25.4644 19.0836 25.4828C17.924 25.5495 17.5439 25.5495 14.5738 25.5495ZM14.5325 5.5709C11.5623 5.5709 11.2539 5.58547 10.0943 5.63768C9.40211 5.64685 8.71664 5.77458 8.06763 6.01532C7.10926 6.38205 6.35091 7.13731 5.98027 8.09418C5.73768 8.75026 5.60993 9.44323 5.60263 10.1427C5.53827 11.3193 5.53827 11.6278 5.53827 14.5773C5.53827 17.4915 5.5492 17.8449 5.60263 19.0143C5.6135 19.7066 5.74118 20.3922 5.98027 21.0421C6.35145 21.9983 7.10967 22.753 8.06763 23.1198C8.7162 23.3621 9.40195 23.4899 10.0943 23.4974C11.2697 23.5654 11.5793 23.5654 14.5325 23.5654C17.5111 23.5654 17.8196 23.5508 18.9695 23.4974C19.6621 23.489 20.3481 23.3612 20.9973 23.1198C21.9499 22.7499 22.7033 21.9969 23.0738 21.0445C23.3159 20.3879 23.4436 19.6946 23.4514 18.9948H23.4648C23.517 17.834 23.517 17.5243 23.517 14.5578C23.517 11.5913 23.5036 11.2793 23.4514 10.1196C23.4405 9.42801 23.3129 8.74323 23.0738 8.09418C22.7042 7.14045 21.9506 6.38604 20.9973 6.01532C20.3482 5.77337 19.6622 5.6456 18.9695 5.63768C17.7953 5.5709 17.4881 5.5709 14.5325 5.5709ZM14.5738 20.186C12.303 20.1875 10.2551 18.8209 9.38496 16.7234C8.51486 14.626 8.99402 12.211 10.599 10.6047C12.2039 8.99833 14.6185 8.51708 16.7167 9.38537C18.8149 10.2537 20.1833 12.3005 20.1838 14.5712C20.1804 17.6689 17.6715 20.18 14.5738 20.186ZM14.5738 10.9259C12.5619 10.9259 10.9309 12.5569 10.9309 14.5688C10.9309 16.5806 12.5619 18.2116 14.5738 18.2116C16.5857 18.2116 18.2166 16.5806 18.2166 14.5688C18.212 12.5588 16.5837 10.9306 14.5738 10.9259ZM20.4023 10.0601C19.6804 10.0574 19.0969 9.47068 19.0982 8.74869C19.0995 8.0267 19.6852 7.44212 20.4072 7.44212C21.1292 7.44212 21.7149 8.02669 21.7162 8.74868C21.7165 9.09701 21.5781 9.43114 21.3316 9.67722C21.0851 9.9233 20.7507 10.0611 20.4023 10.0601Z" fill="#F5BBBB"/>
</svg>
