<svg width="25" height="24" viewBox="0 0 25 24" fill="none" xmlns="http://www.w3.org/2000/svg">
<path d="M12.2137 19.4376C12.2137 19.4376 2.67175 14.3982 2.67175 8.27899C2.67195 7.19744 3.06932 6.14933 3.79631 5.31287C4.52331 4.47641 5.53504 3.90322 6.65951 3.69075C7.78398 3.47829 8.95177 3.63966 9.96433 4.14744C10.9769 4.65522 11.7717 5.47805 12.2137 6.47605L12.2137 6.47606C12.6557 5.47806 13.4505 4.65522 14.4631 4.14744C15.4756 3.63966 16.6434 3.47829 17.7679 3.69075C18.8923 3.90322 19.9041 4.47641 20.6311 5.31287C21.3581 6.14933 21.7554 7.19744 21.7556 8.27899C21.7556 14.3982 12.2137 19.4376 12.2137 19.4376Z" stroke="#F5BBBB" stroke-width="1.74481" stroke-linecap="round" stroke-linejoin="round"/>
</svg>
