<svg width="29" height="28" viewBox="0 0 29 28" fill="none" xmlns="http://www.w3.org/2000/svg">
<path fill-rule="evenodd" clip-rule="evenodd" d="M23.1779 13.9763C24.3714 13.0099 25.1261 11.584 25.1261 9.9935C25.1261 7.08263 22.5979 4.7229 19.4791 4.7229C17.164 4.7229 15.1743 6.02314 14.3025 7.88387C13.4308 6.02322 11.4411 4.72304 9.12607 4.72304C6.00728 4.72304 3.479 7.08277 3.479 9.99364C3.479 11.6161 4.26443 13.0673 5.49976 14.0341C5.8559 15.5066 6.87247 16.7455 8.24369 17.4654C8.64018 20.0143 10.9911 21.9721 13.8319 21.9721C15.6011 21.9721 17.1802 21.2128 18.2157 20.0242C21.0433 19.7366 23.2439 17.5006 23.2439 14.7849C23.2439 14.5099 23.2214 14.2399 23.1779 13.9763Z" fill="#F5BBBB"/>
<path d="M14.1632 22.9501C14.1632 22.9501 3.09814 17.0001 3.09814 9.77504C3.09837 8.49805 3.55917 7.26055 4.40221 6.27293C5.24525 5.28531 6.41848 4.60854 7.72243 4.35768C9.02639 4.10682 10.3806 4.29736 11.5548 4.8969C12.729 5.49643 13.6507 6.46796 14.1632 7.64631L14.1632 7.64632C14.6757 6.46797 15.5974 5.49644 16.7716 4.8969C17.9458 4.29736 19.3 4.10683 20.6039 4.35768C21.9079 4.60854 23.0811 5.28531 23.9242 6.27293C24.7672 7.26055 25.228 8.49805 25.2282 9.77504C25.2282 17.0001 14.1632 22.9501 14.1632 22.9501Z" stroke="#F5BBBB" stroke-width="2.06011" stroke-linecap="round" stroke-linejoin="round"/>
</svg>
