<svg width="16" height="19" viewBox="0 0 16 19" fill="none" xmlns="http://www.w3.org/2000/svg">
<path d="M3.56201 16.9106H12.4923" stroke="#F5BBBB" stroke-width="0.992251" stroke-linecap="round" stroke-linejoin="round"/>
<path d="M8.02717 9.96149C9.12318 9.96149 10.0117 8.92443 10.0117 7.64514C10.0117 6.36586 9.12318 5.3288 8.02717 5.3288C6.93116 5.3288 6.04266 6.36586 6.04266 7.64514C6.04266 8.92443 6.93116 9.96149 8.02717 9.96149Z" stroke="#F5BBBB" stroke-width="0.992251" stroke-linecap="round" stroke-linejoin="round"/>
<path d="M12.9884 7.64518C12.9884 12.857 8.02717 16.9106 8.02717 16.9106C8.02717 16.9106 3.06592 12.857 3.06592 7.64518C3.06592 6.10934 3.58862 4.63641 4.51904 3.55041C5.44945 2.46442 6.71137 1.85431 8.02717 1.85431C9.34298 1.85431 10.6049 2.46442 11.5353 3.55041C12.4657 4.63641 12.9884 6.10934 12.9884 7.64518V7.64518Z" stroke="#F5BBBB" stroke-width="0.992251" stroke-linecap="round" stroke-linejoin="round"/>
<path d="M0.0891724 0.117188V-0.0960226H-0.124038V0.117188H0.0891724ZM15.9652 0.117188H16.1784V-0.0960226H15.9652V0.117188ZM15.9652 18.648V18.8612H16.1784V18.648H15.9652ZM0.0891724 18.648H-0.124038V18.8612H0.0891724V18.648ZM0.0891724 0.330398H15.9652V-0.0960226H0.0891724V0.330398ZM15.752 0.117188V18.648H16.1784V0.117188H15.752ZM15.9652 18.4348H0.0891724V18.8612H15.9652V18.4348ZM0.302382 18.648V0.117188H-0.124038V18.648H0.302382Z" fill="black"/>
</svg>
