<svg width="14" height="14" viewBox="0 0 14 14" fill="none" xmlns="http://www.w3.org/2000/svg">
<path d="M2.8609 12.5646H10.2175" stroke="#F5BBBB" stroke-width="0.817402" stroke-linecap="round" stroke-linejoin="round"/>
<path d="M6.53922 7.36542C7.4421 7.36542 8.17403 6.5895 8.17403 5.63235C8.17403 4.67521 7.4421 3.89929 6.53922 3.89929C5.63635 3.89929 4.90442 4.67521 4.90442 5.63235C4.90442 6.5895 5.63635 7.36542 6.53922 7.36542Z" stroke="#F5BBBB" stroke-width="0.817402" stroke-linecap="round" stroke-linejoin="round"/>
<path d="M10.6262 5.63234C10.6262 9.53173 6.53922 12.5646 6.53922 12.5646C6.53922 12.5646 2.45221 9.53173 2.45221 5.63234C2.45221 4.48325 2.8828 3.38122 3.64927 2.56869C4.41573 1.75616 5.45528 1.29968 6.53922 1.29968C7.62316 1.29968 8.66271 1.75616 9.42918 2.56869C10.1956 3.38122 10.6262 4.48325 10.6262 5.63234V5.63234Z" stroke="#F5BBBB" stroke-width="0.817402" stroke-linecap="round" stroke-linejoin="round"/>
</svg>
