<svg width="17" height="18" viewBox="0 0 17 18" fill="none" xmlns="http://www.w3.org/2000/svg">
<path d="M7.29648 17.4462H2.43487C1.47596 17.4453 0.698841 16.6681 0.697922 15.7091V7.62387C0.0171561 7.14073 -0.194801 6.2248 0.20451 5.49169C0.95463 4.15136 1.71975 2.83021 2.47237 1.56407C2.77422 1.06979 3.31349 0.770383 3.8926 0.775485C4.24559 0.779072 4.58895 0.891109 4.87609 1.09646L4.89609 1.10896C5.23948 1.30901 8.55668 3.28366 11.2229 4.86987L13.5892 6.27688L13.6975 6.34106C15.5461 7.43382 15.962 7.68222 15.9854 7.69805C16.6659 8.17992 16.8752 9.09653 16.4713 9.82607C15.7353 11.1405 14.971 12.4617 14.2034 13.7537C13.9055 14.2426 13.3757 14.5425 12.8032 14.5464C12.691 14.5464 12.5792 14.5338 12.4698 14.5089C12.3731 14.5664 11.8397 14.909 11.1638 15.3424C9.96107 16.1134 8.31747 17.1678 8.12744 17.2654C7.87105 17.3973 7.58452 17.4597 7.29648 17.4462ZM2.08731 9.96943V15.7091C2.08731 15.9011 2.24292 16.0567 2.43487 16.0567H5.62121C4.41018 14.0121 3.22166 11.9632 2.08731 9.96943ZM3.21916 9.1359C3.55255 9.70854 7.14979 15.9142 7.17979 15.9559C7.22718 16.0174 7.30048 16.0535 7.37816 16.0534C7.41913 16.0534 7.45948 16.0434 7.49568 16.0242C7.60819 15.9609 10.9912 13.787 11.0246 13.7653C10.7629 13.6111 8.86923 12.4825 6.86391 11.2881L3.20249 9.11089L3.20832 9.12006L3.21666 9.13423V9.13923L3.21916 9.1359ZM3.61422 2.35927C2.94078 3.44286 1.43387 6.13351 1.41387 6.18269C1.36446 6.30076 1.40829 6.43723 1.51722 6.50443C1.62807 6.57028 12.6473 13.136 12.7523 13.1527C12.7657 13.1537 12.779 13.1537 12.7924 13.1527C12.8829 13.153 12.967 13.1059 13.0141 13.0285C13.6925 11.8891 15.2553 9.14674 15.2594 9.1384C15.3077 9.01984 15.2637 8.88374 15.1552 8.81582C15.0494 8.75247 4.05096 2.2159 3.98011 2.18506C3.94792 2.1715 3.91337 2.16442 3.87843 2.16422C3.79066 2.1647 3.70897 2.20914 3.6609 2.28258L3.65506 2.29258L3.64839 2.30259L3.63839 2.31926V2.32342L3.62589 2.34343L3.61339 2.35927H3.61422ZM4.7419 6.93537C3.97557 6.93491 3.35449 6.31365 3.35418 5.54725C3.35388 4.78086 3.97446 4.15911 4.7408 4.15803C5.50713 4.15696 6.12945 4.77697 6.13129 5.54337C6.13037 6.31039 5.50886 6.93195 4.7419 6.93287V6.93537Z" fill="#F5BBBB"/>
</svg>
