<svg width="28" height="28" viewBox="0 0 28 28" fill="none" xmlns="http://www.w3.org/2000/svg">
<path d="M11.0833 11.667C11.0833 10.7435 9.85508 10.4988 9.52922 11.3628C8.74099 13.4529 8.16666 15.3227 8.16666 16.3336C8.16666 19.5552 10.7783 22.1669 14 22.1669C17.2217 22.1669 19.8333 19.5552 19.8333 16.3336C19.8333 15.2475 19.1704 13.1701 18.2915 10.8931C17.153 7.94358 16.5837 6.4688 15.881 6.38937C15.6562 6.36395 15.4109 6.40965 15.2103 6.51433C14.5833 6.84148 14.5833 8.44999 14.5833 11.667C14.5833 12.6335 13.7998 13.417 12.8333 13.417C11.8668 13.417 11.0833 12.6335 11.0833 11.667Z" stroke="#F5BBBB" stroke-width="1.75"/>
</svg>
