<svg width="18" height="15" viewBox="0 0 18 15" fill="none" xmlns="http://www.w3.org/2000/svg">
<path fill-rule="evenodd" clip-rule="evenodd" d="M15.4168 2.55379C14.0897 1.19659 11.906 1.19659 10.579 2.55379L9.70336 3.44927C9.58206 3.57334 9.41587 3.64327 9.24236 3.64327C9.06884 3.64327 8.90266 3.57334 8.78135 3.44927L7.90576 2.55379C6.57872 1.19659 4.395 1.19659 3.06796 2.55379C1.78244 3.86853 1.78243 5.96934 3.06796 7.28408L9.12725 13.4811C9.1904 13.5457 9.29431 13.5457 9.35746 13.4811L15.4167 7.28408C16.7023 5.96934 16.7023 3.86853 15.4168 2.55379ZM9.65694 1.65226C11.4898 -0.222259 14.5059 -0.222258 16.3388 1.65226C18.1143 3.46815 18.1143 6.36972 16.3388 8.18561L10.2795 14.3826C9.7105 14.9645 8.77422 14.9645 8.20524 14.3826L2.14595 8.18561C0.370417 6.36972 0.370418 3.46815 2.14595 1.65226C3.97882 -0.222258 6.99491 -0.222258 8.82778 1.65226L9.24236 2.07627L9.65694 1.65226Z" fill="#F5BBBB"/>
</svg>
