<svg width="15" height="17" viewBox="0 0 15 17" fill="none" xmlns="http://www.w3.org/2000/svg">
<path d="M3.21364 4.55504C3.21364 2.29239 5.20074 0.458141 7.65195 0.458141C10.1032 0.458141 12.0903 2.29239 12.0903 4.55504C12.0903 6.8177 10.1032 8.65194 7.65195 8.65194C5.20074 8.65194 3.21364 6.8177 3.21364 4.55504ZM7.65195 7.01318C9.12268 7.01318 10.3149 5.91264 10.3149 4.55504C10.3149 3.19745 9.12268 2.0969 7.65195 2.0969C6.18123 2.0969 4.98897 3.19745 4.98897 4.55504C4.98897 5.91264 6.18123 7.01318 7.65195 7.01318Z" fill="#F5BBBB"/>
<path d="M2.63058 11.3913C1.29883 12.6206 0.550659 14.2879 0.550659 16.0264H2.32598C2.32598 14.7225 2.88711 13.472 3.88592 12.55C4.88474 11.628 6.23942 11.1101 7.65195 11.1101C9.06449 11.1101 10.4192 11.628 11.418 12.55C12.4168 13.472 12.9779 14.7225 12.9779 16.0264H14.7533C14.7533 14.2879 14.0051 12.6206 12.6733 11.3913C11.3416 10.1619 9.53534 9.47132 7.65195 9.47132C5.76857 9.47132 3.96233 10.1619 2.63058 11.3913Z" fill="#F5BBBB"/>
</svg>
